<svg width="46" class="icon-category" height="46" viewBox="0 0 46 46" fill="none" xmlns="http://www.w3.org/2000/svg">
<g clip-path="url(#clip0)">
<path d="M35.9891 32.579L40.8522 17.3982L45.6053 12.645C46.1317 12.1187 46.1317 11.2654 45.6053 10.7391L35.2614 0.395217C34.7352 -0.131088 33.8818 -0.131088 33.3555 0.395217L28.6022 5.1484L13.4215 10.0115C13.0287 10.1373 12.7152 10.4362 12.5705 10.8225L0.0858277 44.1803C-0.239137 45.0492 0.397406 46.0004 1.34822 46.0004C1.34858 46.0004 1.34885 46.0004 1.34921 46.0004H41.6718C42.4161 46.0004 43.0195 45.397 43.0195 44.6527C43.0195 43.9084 42.4161 43.305 41.6718 43.305H8.79331L35.1779 33.4301C35.5644 33.2854 35.8632 32.9718 35.9891 32.579ZM34.3084 3.25404L42.7465 11.6921L39.6682 14.7704L31.2301 6.33227L34.3084 3.25404ZM6.69339 41.213L18.9445 28.962C21.2048 30.3533 24.1831 30.0525 26.114 28.1216C28.3898 25.8459 28.3898 22.1626 26.114 19.8868C23.8436 17.6165 20.1495 17.6164 17.8792 19.8868C15.9189 21.8472 15.6603 24.8303 17.0375 27.0577L4.78753 39.3073L14.8659 12.379L28.9526 7.86644C30.3582 9.27214 37.2554 16.1693 38.134 17.0479L33.6214 31.1346L6.69339 41.213ZM19.7849 21.7926C21.0043 20.5732 22.9885 20.573 24.2081 21.7926C25.4303 23.0147 25.4305 24.9933 24.2081 26.2157C22.9887 27.4352 21.0044 27.4351 19.7849 26.2157C18.5626 24.9934 18.5624 23.0151 19.7849 21.7926Z"/>
</g>
<defs>
<clipPath id="clip0">
<rect width="46" height="46" fill="white"/>
</clipPath>
</defs>
</svg>
