<svg width="46" height="46" viewBox="0 0 46 46" fill="none" xmlns="http://www.w3.org/2000/svg">
<path d="M37.2241 41.5V4.5C37.2241 2.01897 35.2055 0 32.7241 0H13.2741C10.793 0 8.77405 2.01897 8.77405 4.5V41.5C8.77405 43.9815 10.793 46 13.2741 46H32.7741C33.9766 46 35.1461 45.5055 35.9826 44.6435C36.8185 43.7815 37.259 42.649 37.2241 41.5ZM33.829 42.554C33.5505 42.8421 33.1761 43 32.774 43H13.2741C12.447 43 11.774 42.327 11.774 41.5V4.5C11.774 3.67299 12.447 2.99997 13.2741 2.99997H32.7241C33.5511 2.99997 34.2241 3.67299 34.2241 4.5L34.2246 41.545C34.236 41.921 34.0955 42.2795 33.829 42.554Z"/>
<path d="M35.774 5.85004H10.274V8.85001H35.774V5.85004Z"/>
<path d="M35.774 34.8H10.274V37.8H35.774V34.8Z"/>
<path d="M24.2741 38.85H21.7741C20.9455 38.85 20.274 39.5215 20.274 40.35C20.274 41.1785 20.9455 41.85 21.7741 41.85H24.2741C25.1026 41.85 25.7741 41.1785 25.7741 40.35C25.7741 39.5215 25.1025 38.85 24.2741 38.85Z"/>
</svg>
